name ./resultDataOpenSim/trcMotMarkerGrf/sub10/grf-04-02.mot
datacolumns 19
datarows 22
range 1.58000000 1.66400000
endheader

                time	     ground_force_vx	     ground_force_vy	     ground_force_vz	     ground_force_px	     ground_force_py	     ground_force_pz	   l_ground_force_vx	   l_ground_force_vy	   l_ground_force_vz	   l_ground_force_px	   l_ground_force_py	   l_ground_force_pz	     ground_torque_x	     ground_torque_y	     ground_torque_z	   l_ground_torque_x	   l_ground_torque_y	   l_ground_torque_z	
          1.58000000	        -42.14283363	        472.10506106	        -20.35263004	          0.79689786	          0.00000000	         -0.04012122	          0.00000000	          0.00000000	          0.00000000	          0.00000000	          0.00000000	          0.00000000	          0.00000000	          1.82989387	          0.00000000	          0.00000000	          0.00000000	          0.00000000	
          1.58400000	        -41.33767229	        460.87666490	        -20.05713692	          0.79825782	          0.00000000	         -0.04045384	          0.00000000	          0.00000000	          0.00000000	          0.00000000	          0.00000000	          0.00000000	          0.00000000	          1.92514227	          0.00000000	          0.00000000	          0.00000000	          0.00000000	
          1.58800000	        -40.36544822	        450.14220611	        -19.55734972	          0.79959586	          0.00000000	         -0.04079796	          0.00000000	          0.00000000	          0.00000000	          0.00000000	          0.00000000	          0.00000000	          0.00000000	          2.00265813	          0.00000000	          0.00000000	          0.00000000	          0.00000000	
          1.59200000	        -38.65109421	        439.94413730	        -18.75585254	          0.80082506	          0.00000000	         -0.04114921	          0.00000000	          0.00000000	          0.00000000	          0.00000000	          0.00000000	          0.00000000	          0.00000000	          2.07382859	          0.00000000	          0.00000000	          0.00000000	          0.00000000	
          1.59600000	        -35.90588886	        430.35284106	        -17.62955103	          0.80190897	          0.00000000	         -0.04150188	          0.00000000	          0.00000000	          0.00000000	          0.00000000	          0.00000000	          0.00000000	          0.00000000	          2.14982066	          0.00000000	          0.00000000	          0.00000000	          0.00000000	
          1.60000000	        -32.18873592	        421.43991888	        -16.24542466	          0.80287200	          0.00000000	         -0.04184937	          0.00000000	          0.00000000	          0.00000000	          0.00000000	          0.00000000	          0.00000000	          0.00000000	          2.23732695	          0.00000000	          0.00000000	          0.00000000	          0.00000000	
          1.60400000	        -27.86771402	        413.26838903	        -14.74753708	          0.80377128	          0.00000000	         -0.04219093	          0.00000000	          0.00000000	          0.00000000	          0.00000000	          0.00000000	          0.00000000	          0.00000000	          2.33661676	          0.00000000	          0.00000000	          0.00000000	          0.00000000	
          1.60800000	        -23.50374893	        405.89179817	        -13.31732865	          0.80468624	          0.00000000	         -0.04253369	          0.00000000	          0.00000000	          0.00000000	          0.00000000	          0.00000000	          0.00000000	          0.00000000	          2.44271323	          0.00000000	          0.00000000	          0.00000000	          0.00000000	
          1.61200000	        -19.69142387	        399.34734977	        -12.12099558	          0.80569692	          0.00000000	         -0.04288238	          0.00000000	          0.00000000	          0.00000000	          0.00000000	          0.00000000	          0.00000000	          0.00000000	          2.54851789	          0.00000000	          0.00000000	          0.00000000	          0.00000000	
          1.61600000	        -16.89565886	        393.63948381	        -11.26492090	          0.80687288	          0.00000000	         -0.04323442	          0.00000000	          0.00000000	          0.00000000	          0.00000000	          0.00000000	          0.00000000	          0.00000000	          2.64774596	          0.00000000	          0.00000000	          0.00000000	          0.00000000	
          1.62000000	        -15.32645210	        388.72501425	        -10.77427019	          0.80823922	          0.00000000	         -0.04358380	          0.00000000	          0.00000000	          0.00000000	          0.00000000	          0.00000000	          0.00000000	          0.00000000	          2.73628198	          0.00000000	          0.00000000	          0.00000000	          0.00000000	
          1.62400000	        -14.88604775	        384.52669455	        -10.59750131	          0.80976977	          0.00000000	         -0.04393055	          0.00000000	          0.00000000	          0.00000000	          0.00000000	          0.00000000	          0.00000000	          0.00000000	          2.81209276	          0.00000000	          0.00000000	          0.00000000	          0.00000000	
          1.62800000	        -15.20073213	        380.97334294	        -10.62887600	          0.81139459	          0.00000000	         -0.04427645	          0.00000000	          0.00000000	          0.00000000	          0.00000000	          0.00000000	          0.00000000	          0.00000000	          2.87475192	          0.00000000	          0.00000000	          0.00000000	          0.00000000	
          1.63200000	        -15.72671101	        378.02451269	        -10.73694910	          0.81303011	          0.00000000	         -0.04461527	          0.00000000	          0.00000000	          0.00000000	          0.00000000	          0.00000000	          0.00000000	          0.00000000	          2.92539374	          0.00000000	          0.00000000	          0.00000000	          0.00000000	
          1.63600000	        -15.90163381	        375.66428026	        -10.79255827	          0.81459371	          0.00000000	         -0.04493855	          0.00000000	          0.00000000	          0.00000000	          0.00000000	          0.00000000	          0.00000000	          0.00000000	          2.96700857	          0.00000000	          0.00000000	          0.00000000	          0.00000000	
          1.64000000	        -15.29867206	        373.88569377	        -10.69649926	          0.81601369	          0.00000000	         -0.04524133	          0.00000000	          0.00000000	          0.00000000	          0.00000000	          0.00000000	          0.00000000	          0.00000000	          3.00432488	          0.00000000	          0.00000000	          0.00000000	          0.00000000	
          1.64400000	        -13.73650138	        372.68209015	        -10.40419678	          0.81724957	          0.00000000	         -0.04552245	          0.00000000	          0.00000000	          0.00000000	          0.00000000	          0.00000000	          0.00000000	          0.00000000	          3.04269187	          0.00000000	          0.00000000	          0.00000000	          0.00000000	
          1.64800000	        -11.31437995	        372.04877626	         -9.93893493	          0.81830581	          0.00000000	         -0.04578235	          0.00000000	          0.00000000	          0.00000000	          0.00000000	          0.00000000	          0.00000000	          0.00000000	          3.08623387	          0.00000000	          0.00000000	          0.00000000	          0.00000000	
          1.65200000	         -8.36738463	        371.98809634	         -9.38884900	          0.81923603	          0.00000000	         -0.04601996	          0.00000000	          0.00000000	          0.00000000	          0.00000000	          0.00000000	          0.00000000	          0.00000000	          3.13634849	          0.00000000	          0.00000000	          0.00000000	          0.00000000	
          1.65600000	         -5.35879062	        372.50729258	         -8.88793679	          0.82011567	          0.00000000	         -0.04623078	          0.00000000	          0.00000000	          0.00000000	          0.00000000	          0.00000000	          0.00000000	          0.00000000	          3.19161997	          0.00000000	          0.00000000	          0.00000000	          0.00000000	
          1.66000000	         -2.74202027	        373.60967970	         -8.58192959	          0.82100371	          0.00000000	         -0.04640970	          0.00000000	          0.00000000	          0.00000000	          0.00000000	          0.00000000	          0.00000000	          0.00000000	          3.24933219	          0.00000000	          0.00000000	          0.00000000	          0.00000000	
          1.66400000	         -0.83345828	        375.28546009	         -8.58648191	          0.82192977	          0.00000000	         -0.04655492	          0.00000000	          0.00000000	          0.00000000	          0.00000000	          0.00000000	          0.00000000	          0.00000000	          3.30766811	          0.00000000	          0.00000000	          0.00000000	          0.00000000	
